<svg xmlns="http://www.w3.org/2000/svg" xml:space="preserve" viewBox="0 0 117.419 91.527"><path fill="#78de89" d="M11.976 10.539C19.28.83 30.428 6.596 33.533 8.784c3.144 2.218 10.27 5.086 14.065 3.982 3.795-1.113 5.56-6.86 3.154-8.614-3.036-2.218-5.382.04-5.283 2.05.04.828.65 2.592-.74 2.957-.719.187-1.576-.74-1.852-1.942s-.257-2.76.926-4.721c2.474-4.1 10.37-3.095 11.601 2.622 1.183 5.54-2.454 9.373-6.051 10.694-5.303 1.952-12.716-.315-16.185-2.957-4.386-3.341-12.765-5.391-17.299-.089-6.564 7.679 6.664 22.385 6.664 22.385l-5.185 4.07s-1.479-2.868-4.534-9.343c-2.878-6.092-5.136-13.632-.838-19.34Z"/><path fill="#d43330" d="M32.97 45.234 20.947 46.9s.739 2.405 1.015 4.16c.276 1.754.572 5.51-.65 6.288-2.317 1.479-4.9-1.942-11.661-1.114-3.726.463-9.157 2.494-9.62 7.491-.493 5.372 5.263-.63 9.62-1.015 3.144-.276 4.16 3.332 4.16 3.332s7.766 6.564 8.23 5.648c.463-.927 22.197-17.486 22.197-17.486z"/><path fill="#fffafe" d="M17.9 47.452s-.552 5.55 1.203 6.013c1.754.463 2.779-2.78 2.779-2.78s1.577-.276 4.534-.276c1.764 0 4.258.65 4.258.65s-.591 2.396 1.015 3.233c1.942 1.016 5.826-6.288 5.826-6.288l-13.879-2.405z"/><path fill="#fffafe" d="M14.568 67.895s.927-4.16 1.203-5.086c.276-.927.828-2.957 1.754-3.145.927-.187 2.218 1.578 2.218 1.578s3.42-2.494 4.258-2.957c.838-.464 3.332-1.479 3.332-1.479s-.09-2.375 1.291-2.592c2.405-.375 3.055 4.435 3.055 4.435L21.133 69.66z"/><path fill="#bcce46" d="M18.176 75.987s.976 4.86 8.88 9.57c7.906 4.713 12.765 5.55 15.683 5.826 2.917.276 5.825.276 5.825-1.113 0-1.006-2.08-2.218-4.722-2.78-2.631-.552-3.745-1.252-3.055-2.356 1.252-1.991 7.629 2.08 12.902 2.918 5.274.828 15.82 3.47 16.786-.69.966-4.16-6.939-1.252-7.353-4.16-.414-2.917 7.767-2.632 12.903-.976 5.135 1.666 9.57 6.25 11.512 6.526 1.942.276 3.352-1.242 2.78-3.47-.65-2.494-2.218-4.721-4.998-6.525-2.78-1.804-15.682-7.077-15.682-7.077L41.35 69.61l-10.409.276z"/><linearGradient id="a" x1="131.416" x2="63.091" y1="52.368" y2="69.637" gradientTransform="matrix(.98567 0 0 .98567 -4.524 -19.001)" gradientUnits="userSpaceOnUse"><stop offset=".171" stop-color="#01ab46"/><stop offset=".499" stop-color="#128a3c"/><stop offset="1" stop-color="#2f502a"/></linearGradient><path fill="url(#a)" d="M27.195 31.859s-1.252-8.467 2.917-11.936c4.17-3.47 8.467-2.494 11.099-2.357 2.632.139 9.295 2.357 18.59 1.529 9.876-.888 18.451-5.136 27.056-6.25 8.605-1.113 15.544.976 15.268 4.022-.276 3.056-12.902 1.666-11.937 4.86.976 3.193 18.176-2.494 19.428 2.631 1.311 5.391-8.93 1.952-8.743 4.997.276 4.584 14.568-1.665 16.372 3.746 2.08 6.249-15.268 6.94-13.04 10.684 2.217 3.746 12.212-1.113 12.902 2.918.602 3.49-2.267 5.736-6.387 6.801-2.849.74-12.291 1.094-12.212 3.608.138 4.297 7.767.414 9.57 2.631 1.804 2.218-2.917 6.801-11.098 7.216-5.56.285-10.133-1.804-10.27.275-.139 2.08 5.361 2.307 7.49 3.332 3.47 1.666 4.722 3.332 3.194 6.101-1.528 2.78-4.85-.66-7.215-.828-3.746-.276-8.191 1.114-11.799 1.114-3.607 0-10.408-2.08-10.408-2.08s1.251 1.39 0 2.494c-1.252 1.104-4.584.976-8.743-1.252-4.16-2.217-7.215-2.917-8.467-2.917-1.252 0-7.471.128-8.556-.602-8.605-5.825 3.835-36.036 3.835-36.036z"/><path fill="#feb30b" d="M49.628 26.91s8.97-3.42 13.504-9.067c2.898-3.608 4.81-11.198 9.709-8.97 6.11 2.77-5.047 11.601-3.795 11.937 1.754.463 6.94-4.071 10.172-7.59 3.233-3.519 7.195-5.057 9.344-2.405 2.405 2.957-1.577 7.954-7.402 11.66-5.825 3.697-11.227 5.678-14.805 6.289-3.795.65-11.01.74-11.01.74l-7.027-.188z"/><path fill="#01ab46" d="M62.018 43.795s3.677 1.873 8.467-2.08c2.977-2.454 6.594-4.514 11.66-5.825 5.343-1.39 7.423-.62 10.064-1.458 2.632-.828 5.816-1.804 7.56-2.287 2.494-.69 4.88 2.829.69 5.135-2.78 1.528-6.318 2.425-8.743 2.71-1.39.158-5.214 1.134-6.564 1.647-2.78 1.044-5.5 3.558-5.5 3.558s6.949-2.612 10.96-2.918c4.86-.374 10.202-.138 11.73-.975 1.528-.828 5.894-2.987 7.422-.276 1.508 2.67-2.632 6.032-6.94 7.008-4.307.975-9.225.414-13.808 1.32-2.81.552-7.974 2.632-13.533 6.102-5.55 3.47-11.1 4.721-13.74 4.435-2.632-.276-7.492 6.663-7.492 6.663l-16.096 2.08-11.236 3.884s-3.746 7.215-11.099 4.721c-7.353-2.494-5.825-11.66-3.47-12.212 2.356-.552 3.47 2.355 5.688 1.665 2.217-.69 6.515-6.761 10.409-8.19 3.607-1.321 8.121-.976 8.121-6.102 0-5.125-11.03-4.297-13.533-4.021-2.494.276-11.936 3.47-17.21-.69-5.273-4.16-6.682-19.24.276-21.232 5.826-1.665 11.1 5.964 16.786 5.964 4.584 0 5.757-3.884 10.478-7.905 3.48-2.967 7.422-4.229 10.201-2.918 2.307 1.094-5.135 3.332-3.745 3.884 0 0 4.997-1.942 8.881-2.08 3.883-.138 4.652.374 5.135 1.252.69 1.251-3.745 1.251-2.632 2.355 1.114 1.114 5.826-.69 8.881-.138 3.056.552 3.056 2.08 2.356 2.632-.69.552-5.48 1.528-5.55 2.918-.048.965 2.997 1.192 4.515 2.917 1.528 1.735 1.252 4.16 1.114 5.411-.158 1.243-.503 3.046-.503 3.046z"/><path fill="#78de8a" d="M41.073 32.283c-2.977.335-8.398-4.367-11.306 2.631-2.356 5.678 5.717 9.857 10.685 6.033 2.267-1.735 3.538-3.953 5.273-5.688 1.143-1.143 2.632-1.961 2.987-3.055.611-1.932-4.524-.266-7.64.079zM26.988 73.148s1.045-5.894 6.387-7.767c5.342-1.872 15.051-.276 17.21-.975 2.148-.69 5.155-1.844 5.756-7.491.483-4.584-.976-4.998-1.252-10.892-.325-6.87 4.16-8.546 5.687-8.467 1.252.069 2.218.907 2.287 1.873.099 1.4-.138 2.217-.138 2.217s2.464.493 2.987 4.436c.758 5.826-3.608 8.398-3.953 11.513-.345 3.124 0 8.604-4.928 11.374-4.929 2.77-5.362 1.222-8.95 2.425-1.41.473-3.814 1.873-6.594 1.459-2.78-.414-3.539-1.528-7.146-1.528-2.79.02-7.353 1.823-7.353 1.823z"/><path fill="#2a2c33" d="M37.465 38.404c-1.202 1.458-3.588 1.794-5.046.857-1.508-.966-1.33-3.578.088-5.273 1.43-1.695 3.756-1.991 5.136-.828 1.38 1.153 1.232 3.539-.178 5.244z"/><path fill="#44484a" d="M7.304 31.494c-1.055 1.173-.05 2.592.325 2.918.375.325 1.34.976 1.154 1.754-.188.789-1.39 2.356-.513 3.095.877.74 3.144-.65 3.42-3.282.276-2.632-.877-3.795-1.478-4.347-.592-.552-2.03-1.114-2.908-.138z"/></svg>