<svg xmlns="http://www.w3.org/2000/svg" xml:space="preserve" viewBox="0 0 500.864 390.421"><path fill="#78de89" d="M51.085 44.955c31.155-41.414 78.708-16.818 91.952-7.484 13.412 9.46 43.81 21.695 59.998 16.986 16.187-4.751 23.713-29.263 13.454-36.747-12.95-9.46-22.956.168-22.536 8.745.168 3.532 2.775 11.058-3.153 12.614-3.07.799-6.727-3.154-7.905-8.283-1.177-5.13-1.093-11.773 3.953-20.14 10.553-17.49 44.23-13.202 49.486 11.184 5.046 23.63-10.469 39.985-25.815 45.619-22.62 8.325-54.238-1.345-69.038-12.613-18.71-14.254-54.448-22.999-73.788-.379-28.002 32.753 28.422 95.484 28.422 95.484l-22.116 17.364s-6.306-12.235-19.34-39.858c-12.277-25.984-21.906-58.148-3.574-82.492z"/><path fill="#d43330" d="m140.64 192.953-51.294 7.105s3.153 10.26 4.33 17.743c1.177 7.484 2.439 23.503-2.775 26.825-9.88 6.307-20.896-8.283-49.739-4.751C25.27 241.85 2.102 250.512.126 271.829c-2.102 22.914 22.452-2.691 41.036-4.33 13.413-1.178 17.743 14.21 17.743 14.21s33.131 28.002 35.108 24.092c1.976-3.952 94.685-74.587 94.685-74.587z"/><path fill="#fffafe" d="M76.354 202.413s-2.355 23.671 5.13 25.647c7.483 1.976 11.856-11.856 11.856-11.856s6.727-1.178 19.34-1.178c7.526 0 18.164 2.775 18.164 2.775s-2.523 10.217 4.33 13.79c8.283 4.332 24.849-26.824 24.849-26.824l-59.2-10.259z"/><path fill="#fffafe" d="M62.143 289.614s3.952-17.743 5.129-21.695c1.177-3.953 3.532-12.614 7.484-13.413 3.952-.798 9.46 6.728 9.46 6.728s14.59-10.638 18.163-12.614c3.574-1.976 14.212-6.307 14.212-6.307s-.379-10.132 5.508-11.057c10.258-1.598 13.033 18.92 13.033 18.92L90.144 297.14z"/><path fill="#bcce46" d="M77.531 324.133s4.162 20.728 37.882 40.825c33.72 20.098 54.448 23.671 66.894 24.849 12.445 1.177 24.848 1.177 24.848-4.751 0-4.289-8.871-9.46-20.14-11.857-11.225-2.355-15.976-5.34-13.033-10.049 5.34-8.493 32.542 8.872 55.036 12.445 22.494 3.532 67.482 14.8 71.603-2.943 4.12-17.743-29.6-5.34-31.366-17.743-1.765-12.445 33.132-11.226 55.037-4.162 21.905 7.106 40.826 26.656 49.108 27.834 8.283 1.177 14.296-5.298 11.857-14.8-2.775-10.637-9.46-20.14-21.317-27.834-11.856-7.694-66.893-30.188-66.893-30.188l-120.669-8.83-44.399 1.178z"/><linearGradient id="a" x1="131.416" x2="63.091" y1="52.368" y2="69.637" gradientTransform="translate(-19.298 -81.053) scale(4.20448)" gradientUnits="userSpaceOnUse"><stop offset=".171" stop-color="#01ab46"/><stop offset=".499" stop-color="#128a3c"/><stop offset="1" stop-color="#2f502a"/></linearGradient><path fill="url(#a)" d="M116.002 135.898s-5.34-36.117 12.445-50.916c17.785-14.8 36.117-10.638 47.343-10.05 11.226.59 39.648 10.05 79.296 6.518 42.13-3.784 78.708-21.905 115.413-26.657 36.705-4.75 66.305 4.163 65.128 17.155-1.178 13.034-55.037 7.105-50.917 20.728 4.163 13.622 77.531-10.637 82.87 11.226 5.593 22.998-38.092 8.325-37.293 21.317 1.177 19.55 62.142-7.106 69.836 15.977 8.872 26.656-65.127 29.6-55.625 45.576 9.46 15.977 52.094-4.75 55.037 12.445 2.565 14.884-9.67 24.47-27.245 29.011-12.151 3.154-52.43 4.667-52.094 15.389.589 18.331 33.132 1.766 40.826 11.226 7.694 9.46-12.445 29.01-47.343 30.777-23.713 1.219-43.222-7.695-43.81 1.177-.589 8.871 22.872 9.838 31.954 14.21 14.8 7.106 20.14 14.212 13.622 26.027-6.517 11.856-20.686-2.817-30.777-3.532-15.977-1.177-34.939 4.751-50.327 4.751-15.389 0-44.4-8.871-44.4-8.871s5.34 5.928 0 10.637c-5.34 4.709-19.55 4.162-37.293-5.34-17.743-9.46-30.777-12.445-36.117-12.445-5.34 0-31.87.546-36.495-2.565-36.705-24.848 16.356-153.716 16.356-153.716z"/><path fill="#feb30b" d="M211.696 114.791s38.26-14.59 57.601-38.68c12.362-15.39 20.518-47.764 41.415-38.262 26.067 11.815-21.527 49.487-16.188 50.917 7.484 1.976 29.6-17.365 43.39-32.375 13.791-15.01 30.693-21.569 39.859-10.259 10.259 12.614-6.727 33.93-31.576 49.74-24.848 15.766-47.889 24.217-63.151 26.824-16.187 2.775-46.964 3.153-46.964 3.153l-29.978-.799z"/><path fill="#01ab46" d="M264.546 186.814s15.683 7.989 36.117-8.871c12.697-10.47 28.128-19.257 49.739-24.849 22.788-5.928 31.66-2.649 42.928-6.222 11.226-3.532 24.806-7.695 32.248-9.755 10.637-2.943 20.812 12.067 2.943 21.906-11.857 6.517-26.95 10.343-37.294 11.562-5.928.673-22.241 4.835-28.001 7.021-11.857 4.457-23.461 15.179-23.461 15.179s29.641-11.142 46.753-12.446c20.728-1.597 43.517-.588 50.034-4.162 6.517-3.532 25.142-12.74 31.66-1.177 6.432 11.394-11.227 25.731-29.6 29.893-18.374 4.163-39.354 1.766-58.905 5.634-11.983 2.355-34.014 11.226-57.727 26.026-23.672 14.8-47.343 20.14-58.61 18.92-11.227-1.177-31.955 28.423-31.955 28.423l-68.66 8.871-47.93 16.566s-15.977 30.777-47.343 20.14c-31.365-10.638-24.848-49.74-14.8-52.094 10.05-2.355 14.8 10.048 24.26 7.105 9.46-2.943 27.792-28.842 44.4-34.939 15.388-5.634 34.645-4.162 34.645-26.026 0-21.863-47.049-18.331-57.728-17.154-10.637 1.177-50.916 14.8-73.41-2.943-22.494-17.743-28.507-82.072 1.177-90.565 24.849-7.105 47.343 25.437 71.602 25.437 19.551 0 24.555-16.565 44.694-33.72 14.842-12.655 31.66-18.037 43.516-12.445 9.839 4.667-21.905 14.211-15.977 16.566 0 0 21.317-8.283 37.883-8.872 16.565-.588 19.845 1.598 21.905 5.34 2.943 5.34-15.977 5.34-11.226 10.049 4.751 4.75 24.849-2.943 37.883-.589 13.033 2.355 13.033 8.872 10.048 11.226-2.943 2.355-23.377 6.517-23.671 12.445-.21 4.12 12.782 5.088 19.257 12.446 6.517 7.4 5.34 17.743 4.75 23.082-.672 5.298-2.144 12.992-2.144 12.992z"/><path fill="#78de8a" d="M175.201 137.706c-12.697 1.43-35.822-18.626-48.225 11.226-10.05 24.218 24.386 42.045 45.576 25.731 9.67-7.4 15.094-16.86 22.494-24.26 4.877-4.877 11.226-8.367 12.74-13.033 2.607-8.241-19.299-1.136-32.585.336zM115.119 312.024s4.457-25.143 27.245-33.132c22.788-7.988 64.203-1.177 73.41-4.162 9.166-2.943 21.99-7.862 24.555-31.954 2.06-19.551-4.163-21.317-5.34-46.46-1.388-29.305 17.743-36.453 24.26-36.116 5.34.294 9.46 3.868 9.754 7.988.42 5.97-.589 9.46-.589 9.46s10.512 2.103 12.74 18.92c3.237 24.85-15.388 35.823-16.86 49.109-1.471 13.328 0 36.705-21.022 48.52-21.023 11.814-22.873 5.213-38.177 10.343-6.012 2.018-16.271 7.988-28.128 6.222s-15.094-6.517-30.483-6.517c-11.898.084-31.365 7.779-31.365 7.779z"/><path fill="#2a2c33" d="M159.813 163.816c-5.13 6.222-15.305 7.652-21.527 3.658-6.433-4.12-5.676-15.263.378-22.494 6.097-7.232 16.02-8.493 21.906-3.532 5.886 4.92 5.255 15.094-.757 22.368z"/><path fill="#44484a" d="M31.156 134.342c-4.5 5.004-.21 11.058 1.387 12.446 1.598 1.387 5.718 4.162 4.92 7.484-.8 3.363-5.93 10.048-2.187 13.202 3.742 3.153 13.412-2.775 14.59-14.001 1.177-11.226-3.742-16.188-6.307-18.542-2.523-2.355-8.661-4.751-12.403-.589z"/></svg>