<svg xmlns="http://www.w3.org/2000/svg" xml:space="preserve" viewBox="0 0 425.658 496.093"><g transform="translate(-47.246 -8.665)"><path fill="#bdce44" d="M421.91 216.301s14.573-2.748 27.356-12.325c11.45-8.577 28.19-24.483 22.485-30.479-6.163-6.454-16.114 10.534-18.446 6.454-1.54-2.707 9.66-12.034 14.657-26.399 4.455-12.783-.625-25.44-12.034-11.45-3.539 4.33-6.204 9.035-7.91 7.328-1.833-1.832 2.539-12.491 5.745-22.443 5.372-16.822-2.831-27.98-16.863-7.62-5.996 8.661-8.703 20.07-13.2 19.237-3.206-.583-1.582-7.078-2.123-13.532-1.124-13.45-13.99-11.95-18.404 11.783-1.957 10.493-.25 22.61-2.623 23.443-4.123 1.457-3.207-16.406-9.952-14.657-4.913 1.29-6.745 13.49-6.454 26.399.292 12.907 8.494 33.685 8.494 33.685l11.45 20.82z"/><path fill="#6d8038" d="M389.973 207.016s-9.202 21.485 3.415 49.133c9.202 20.194 22.36 34.435 14.573 42.513-11.534 11.908-52.173-13.866-92.229-2.04-31.187 9.201-46.052 26.94-55.129 59.5-6.787 24.359-13.49 33.81-24.816 37.142-8.827 2.581-22.651.666-29.98-6.038-15.489-14.24-15.114-30.687-9.285-44.511 5.455-12.95 23.484-25.608 31.853-29.938 23.151-12.034 80.029-29.605 96.143-60.376 14.365-27.44 18.154-58.918 9.369-79.445-8.786-20.528-22.86-13.2-22.86-13.2l3.206 48.634-55.961 58.626-80.612 55.088-11.117 58.627 28.147 47.467 58.044-4.413 59.21-89.106 57.169-4.123 54.213-2.914 20.527-57.461z"/><path fill="#00aa48" d="M432.153 156.8c-9.66-6.537-42.596 23.442-42.887 57.17-.292 33.685 20.028 57.46 24.15 64.206 4.122 6.745 17.113 30.395.291 41.013-13.49 8.578-76.49-19.07-109.05 1.749-32.52 20.82-21.486 56.586-51.382 85.483-11.2 10.868-71.41 20.903-76.406-38.89-4.997-59.792 67.412-62.707 103.18-88.814 35.767-26.066 47.176-48.05 46.01-78.821-1.166-30.771-10.243-40.431-10.243-40.431l-57.461 23.442-26.399 42.804s-34.435 12.617-64.872 33.103c-35.85 24.15-42.221 41.638-42.221 41.638s-8.411-2.623-8.411-4.705 29.521-35.684 26.981-50.424c-3.123-18.071-13.074-22.943-18.945-23.526-5.871-.583-9.202 4.497-4.872 11.118 4.289 6.662 6.454 12.491 5.663 15.031-.791 2.54-3.373 5.205-3.914.791-.583-4.871-4.122-13.199-6.662-16.613-2.082-2.79-8.578-10.951-16.614-9.577-8.036 1.374-8.577 8.994-1.957 15.24 6.662 6.245 13.075 15.03 9.785 18.945-3.33 3.914-8.785-8.703-12.325-13.366-3.497-4.705-12.2-6.496-17.404-7.537-5.455-1.082-14.449 4.955-9.203 13.658 3.914 6.454 9.203 3.33 15.615 10.16 6.412 6.828 6.662 9.368 6.454 11.117-.208 1.749-12.325 10.743-13.658 18.945-1.374 8.203.958 13.283-2.165 16.198-3.123 2.914-16.405 2.331-20.694 3.705-4.289 1.375-8.994 12.325-.791 15.823 8.203 3.498 23.234 4.122 30.27 1.957 5.122-1.582 6.663-3.914 8.787-3.498 2.165.375 19.153 12.908 19.153 12.908s-2.415 18.071-2.04 33.394c.5 19.945 6.454 35.56 6.454 35.56s5.954 8.493 3.414 8.41c-7.245-.291-26.981-19.945-36.725-22.068-9.785-2.165-17.571-1.54-21.319 2.748-3.414 3.914-4.663 12.533 2.166 13.074 7.453.583 10.95-.957 10.95 1.75 0 1.79-2.415 3.247-7.245 4.87-6.953 2.333-8.91 7.87-7.245 14.658 1.583 6.37 10.368 4.496 12.908 2.54 2.54-1.958 3.498-3.915 4.872-2.166 1.374 1.749-4.622 6.246-6.454 10.368-3.706 8.286 1.499 11.867 7.037 12.325 7.62.583 8.785-9.202 12.325-12.908 3.497-3.706 7.994-6.662 9.577-6.454 1.582.208.957 6.454 7.994 14.074s16.614 3.331 18.154 4.705c1.541 1.374-1.166 11.534 4.872 16.989 6.038 5.454 15.823 3.122 15.823-5.288 0-8.411.79-11.909.79-11.909s11.826 10.368 27.274 15.823c15.448 5.454 36.558 10.076 36.558 10.076s-2.123 3.789-1.665 11.242c.208 3.04.874 12.325 9.868 12.117 6.454-.125 6.745-12.491 9.077-12.908 2.332-.375-2.248 16.114 9.66 16.905 11.909.791 8.12-14.74 10.243-15.156 2.165-.375 2.207 20.153 17.78 13.074 8.202-3.705-2.749-21.818-1.957-23.442.5-.958 8.202-2.165 13.282-5.455 3.373-2.206 5.455-7.036 5.455-7.036s24.608-6.954 34.768-25.316c13.865-25.067 11.534-54.796 22.484-64.373 10.951-9.577 32.062-1.957 42.222-.791 10.16 1.166 11.117.79 11.742 1.166.583.374 1.748 5.08.79 6.453-.957 1.375-28.73 11.326-35.35 22.485-6.662 11.118-5.705 19.07-5.08 22.068 1.374 6.454 7.703 7.329 10.534 1.957 2.79-5.288 4.29-9.951 6.663-9.202 2.331.791-2.249 9.535-.375 13.658 2.748 6.037 9.577 5.08 12.325 2.914 2.748-2.165 3.414-10.742 5.371-9.785 1.957.958 0 4.705 3.623 11.034 3.206 5.622 13.782.5 12.2-7.828-.958-5.08-5.164-8.91.874-13.782 6.038-4.871 10.95-4.705 17.197-8.577 6.245-3.914 5.662-9.577 12.7-7.037 7.036 2.54 7.244 8.91 12.49 5.288 7.912-5.455 4.123-16.406-2.54-21.694-6.661-5.288-16.405-5.87-17.779-6.454-1.374-.582-1.957-7.994-1.957-7.994s39.473-15.448 43.97-54.338-40.264-80.903-43.179-106.094c-2.83-25.025 15.074-47.968 6.62-53.672z"/><path fill="#7bd989" d="M161.712 462.133c5.33 2.873 10.993 5.372 16.53 7.204 15.907 5.246 32.062 8.203 32.062 8.203s3.331-6.83 14.449-11.909c6.287-2.873 19.945-5.08 19.945-5.08s-20.112-.583-40.431-3.914c-8.744-1.416-19.695-5.163-29.647-11.742zM207.973 265.56c12.7-6.746 24.9-12.492 34.393-16.614l-11.326-22.61c-9.035 3.123-20.819 7.953-35.143 15.448zM143.808 324.602c5.58-12.033 13.532-22.776 22.526-31.52l-15.656-22.318c-14.49 12.117-24.691 25.066-31.478 38.807zM116.368 315.733c-6.995 16.822-9.035 30.48-8.66 50.799l27.73-1.582c-.582-11.95 1.625-23.484 5.705-34.185zM126.82 429.822c4.955 6.829 10.617 12.991 16.655 19.195 3.206 3.29 7.453 6.62 12.283 9.66l13.491-17.613a63.847 63.847 0 0 1-9.577-9.41c-3.997-4.872-7.911-10.035-11.45-16.239zM123.155 424.45c-8.202-12.949-13.907-28.646-15.198-51.464l27.856-2.54c1.375 17.28 4.955 29.688 9.66 39.556zM171.164 288.668c3.873-3.33 7.912-6.329 11.992-8.869a377.831 377.831 0 0 1 19.029-11.117l-11.742-23.984c-6.163 3.373-13.824 7.62-20.86 12.034-5.539 3.497-10.535 7.037-14.241 10.284zM247.487 246.739c1.916-.791 3.664-1.5 5.205-2.124 14.074-5.454 18.363-13.865 15.614-20.32-2.748-6.453-13.49-4.871-16.03-3.913-1.041.374-6.413 1.207-15.781 4.122z"/><path fill="url(#a)" d="M135.855 90.096s-1.749-22.069 13.075-33.81c14.864-11.743 38.307-3.915 51.173-1.583s29.688 1.957 41.805-.791c12.116-2.748 16.822-5.08 24.233-5.455 7.412-.374 18.154-1.166 27.565-1.957 7.953-.666 23.858-2.748 26.398 4.705 1.916 5.538-3.497 11.118-12.116 13.283-8.578 2.165-11.118 3.123-9.369 7.037 1.749 3.914 16.03 1.374 19.154.375 3.123-.958 21.318-4.705 21.318 5.87 0 10.577-14.864 13.658-24.441 16.031-9.577 2.332-15.406.958-15.032 5.871.583 7.828 25.025.375 32.437-.583 7.411-.957 16.821-2.331 17.78 4.706.957 7.036-6.455 14.656-20.529 16.988-14.073 2.332-23.234 4.705-23.067 8.41.166 3.707 17.488-.082 22.485-.957 6.453-1.166 15.614-1.332 16.613 5.288 2.332 15.615-25.4 12.908-25.982 19.154-.541 5.58 22.068-.375 24.816 8.786 2.748 9.202-5.87 17.196-19.528 18.362-9.494.833-42.013-5.663-47.093-.208-5.08 5.454 12.325 6.704 18.154 7.994 7.828 1.75 20.903 2.748 15.032 14.657-3.83 7.828-18.154 5.663-28.606 6.162-10.45.5-29.022 1.666-29.022 1.666l-41.804 1.957-34.976-4.122-22.069-8.203-16.822-7.037-5.288-5.663 48.634-60z"/><path fill="#bece44" d="M270.971 201.228c0 13.532-9.243 28.564-28.439 28.73-19.195.167-29.022-11.575-32.103-12.45-3.081-.874-4.122 11.118-14.781 11.743-10.701.583-26.524-13.325-28.564-13.783-2.04-.458-2.623 10.535-14.199 10.535-8.078 0-17.446-12.617-23.609-18.321-6.162-5.704-17.155-14.074-17.155-14.074h31.062s10.41-1.166 23.443 0c12.658 1.124 23.026 11.118 43.97 10.701 11.742-.25 17.28-1.332 17.28-1.332s4.247-15.323 23.609-16.28c18.029-.875 19.486 11.45 19.486 14.531z"/><path fill="#ffba02" d="M206.89 76.105s20.236-7.703 22.776-13.2c2.54-5.454 10.535-25.981 20.903-29.687 10.367-3.706 16.405 6.662 9.202 14.656-7.204 7.995-17.78 14.657-11.909 18.363 5.871 3.706 18.737-14.449 22.068-18.737 3.331-4.29 10.951-15.448 19.529-15.24 8.577.208 13.907 14.907-2.54 28.522-16.989 14.074-25.4 17.405-44.928 18.737-19.528 1.375-28.939 2.624-28.939 2.624z"/><path fill="#7cdb8b" d="M106.917 76.98s-9.785-32.437 7.411-46.51c17.197-14.074 39.681-5.288 53.339 3.122 12.533 7.704 37.058 6.413 36.142-7.828-.791-12.324-14.324-8.868-15.448-3.33-.958 4.871-3.04 7.994-4.872 7.411-2.082-.625-3.372-4.83-3.123-7.412.958-11.117 10.368-14.448 17.78-13.657 5.83.625 15.614 4.872 14.657 20.528-.958 15.656-17.28 20.028-33.02 17.404-12.45-2.081-23.65-10.742-34.934-13.782-6.912-1.832-16.655-.333-22.61 3.998-6.953 5.08-8.785 13.116-8.744 19.736.042 4.206.833 8.078 1.208 10.95.874 6.538 8.203 26.4 8.203 26.4zM219.881 100.047s9.952 2.165 10.368 13.657c.416 11.493-1.374 12.492-.375 12.908 1 .417 8.994-4.288 13.283 1.166 5.413 6.912-4.289 18.154-9.785 21.902-5.455 3.706-8.786 4.289-9.577 6.037-.791 1.75-8.161 24.442-18.154 28.523-11.534 4.705-44.761 2.748-49.258 2.748s-8.994 4.413-13.2 6.579c-4.205 2.165-8.286 3.58-13.199 2.373-4.872-1.166-12.325-6.662-12.325-6.662z"/><path fill="#d43330" d="m153.26 151.22 11.908.583 6.038-21.318s-16.614-5.663-22.485-4.497c-5.87 1.166-18.57 6.037-22.65 8.202-4.123 2.166-7.412 7.62-15.24 6.454-7.828-1.165-24.609-4.288-34.602 7.037-8.619 9.827-7.037 18.155.375 21.694 7.412 3.497 16.822-7.62 22.86-8.578 6.037-.957 15.239 3.331 15.239 3.331z"/><path fill="#fff" d="M109.29 126.612s3.706 16.989 8.203 16.989 4.497-5.455 4.497-5.455 17.196-4.497 20.527-6.454c3.331-1.957 7.412-9.951 7.412-9.951l-30.48-2.166zM108.874 172.914s-3.498-7.62-2.166-10.95c1.374-3.332 2.54-9.37 6.454-8.995 4.289.417 4.872 7.037 4.872 7.037s11.326-10.368 20.111-13.865c4.705-1.874 12.7-2.54 13.283 1.166.583 3.705-2.165 14.281-2.165 14.281z"/><path fill="#02ab47" d="M96.007 158.84c-1.457 2.665-2.748 12.492-.374 19.529 2.331 7.037 10.16 17.987 22.276 18.737 12.117.75 34.601-25.025 35.934-25.774 1.374-.791 39.473 4.289 50.216-10.951 10.742-15.24 5.121-42.055 10.534-50.424 5.871-8.994 14.449-3.123 14.449-3.123s-.958-6.246-5.289-10.534c-4.288-4.29-10.367-3.498-8.577-8.578 1.749-5.08 15.031-.375 15.823-4.122.79-3.706-4.539-7.453-10.618-8.577-2.873-.542-10.118.79-10.493-.958-.375-1.749 5.663-1.957 5.87-6.038.21-4.122-15.447-2.54-21.9-1.749-6.455.792-14.866 4.497-15.449 2.915-.583-1.582 10.535-7.411 10.16-9.368-.375-1.957-9.202-3.706-22.276 3.33-13.075 7.037-30.105 24.234-30.105 24.234l-12.908-.958s-17.987-21.277-29.521-18.57C81.6 70.734 77.562 82.517 77.729 99.13c.166 16.614 7.244 25.774 25.19 29.105 10.16 1.874 36.559-.916 42.013-1.166 14.282-.666 16.989 5.663 17.78 11.118.79 5.454-9.785 11.534-14.865 12.7-5.08 1.165-11.909 2.331-17.405 6.037-5.454 3.706-11.742 14.074-15.448 13.865-3.705-.208-4.497-6.662-6.454-10.534-1.79-3.956-9.035-7.828-12.533-1.416z"/><path fill="#79da89" d="M194.898 87.347c-.166 1.624-4.538 16.406-15.822 22.86-11.284 6.454-22.735 4.538-25.774-4.83-3.415-10.451 2.331-21.236 15.989-19.362 12.325 1.749 26.482-6.454 25.607 1.332z"/><ellipse cx="26.396" cy="191.163" fill="#2f2e2f" rx="9.327" ry="8.078" transform="rotate(-51.325)"/><path fill="#2f2e2f" d="M95.508 80.02c-2.582 2.33 1.748 8.243 2.04 11.616.291 3.373-1.29 9.494 3.123 9.202 4.413-.291 5.746-5.454 4.83-11.45-1.25-8.078-5.455-13.491-9.993-9.369z"/></g><linearGradient id="a" x1="88.642" x2="46.971" y1="32.751" y2="33.877" gradientTransform="matrix(4.16383 0 0 4.16383 -7.505 -10.294)" gradientUnits="userSpaceOnUse"><stop offset="0" stop-color="#01ab46"/><stop offset=".396" stop-color="#128a3c"/><stop offset="1" stop-color="#2f502a"/></linearGradient></svg>