<svg xmlns="http://www.w3.org/2000/svg" xml:space="preserve" viewBox="0 0 512 512">
    <path
        d="M475.999 134.678c-22.721-38.93-53.54-69.75-92.466-92.468C344.6 19.49 302.1 8.133 255.998 8.133c-46.096 0-88.612 11.36-127.535 34.077-38.93 22.717-69.748 53.538-92.469 92.468-22.717 38.928-34.076 81.438-34.076 127.528 0 55.365 16.153 105.15 48.467 149.37 32.31 44.222 74.05 74.822 125.218 91.803 5.956 1.106 10.365.328 13.231-2.312 2.868-2.645 4.3-5.956 4.3-9.922 0-.661-.056-6.614-.166-17.864-.114-11.25-.167-21.065-.167-29.44l-7.61 1.317c-4.851.889-10.972 1.266-18.361 1.159-7.386-.103-15.054-.877-22.992-2.316-7.942-1.427-15.33-4.735-22.167-9.918-6.834-5.183-11.686-11.968-14.554-20.343l-3.308-7.613c-2.205-5.068-5.677-10.699-10.42-16.87-4.742-6.177-9.538-10.365-14.39-12.57l-2.316-1.658c-1.544-1.102-2.976-2.432-4.3-3.974-1.324-1.542-2.314-3.086-2.976-4.631-.663-1.547-.114-2.816 1.653-3.811 1.768-.996 4.961-1.479 9.595-1.479l6.614.988c4.411.885 9.868 3.525 16.377 7.939 6.505 4.41 11.852 10.144 16.044 17.198 5.075 9.045 11.19 15.938 18.361 20.68 7.166 4.743 14.39 7.11 21.668 7.11 7.276 0 13.562-.551 18.857-1.649 5.29-1.103 10.253-2.76 14.886-4.965 1.985-14.783 7.39-26.14 16.209-34.079-12.57-1.32-23.871-3.31-33.91-5.955-10.032-2.65-20.4-6.948-31.095-12.909-10.7-5.952-19.578-13.344-26.633-22.162-7.057-8.823-12.849-20.406-17.367-34.738-4.52-14.339-6.78-30.879-6.78-49.625 0-26.691 8.713-49.405 26.137-68.154-8.162-20.067-7.391-42.563 2.314-67.485 6.397-1.987 15.882-.496 28.452 4.464 12.573 4.963 21.778 9.215 27.625 12.74 5.847 3.523 10.532 6.51 14.061 8.931 20.516-5.732 41.687-8.599 63.52-8.599 21.833 0 43.01 2.867 63.526 8.6l12.572-7.937c8.596-5.295 18.748-10.148 30.43-14.56 11.69-4.409 20.629-5.623 26.807-3.636 9.921 24.924 10.805 47.419 2.64 67.486 17.424 18.748 26.141 41.468 26.141 68.154 0 18.746-2.269 35.338-6.782 49.786-4.52 14.451-10.36 26.022-17.526 34.739-7.174 8.714-16.108 16.048-26.803 22-10.698 5.955-21.068 10.254-31.1 12.903-10.038 2.65-21.34 4.64-33.91 5.963 11.465 9.921 17.199 25.582 17.199 46.975v69.8c0 3.964 1.379 7.275 4.139 9.92 2.756 2.641 7.11 3.419 13.066 2.312 51.174-16.98 92.914-47.58 125.223-91.803 32.306-44.219 48.465-94.004 48.465-149.37-.012-46.084-11.377-88.59-34.083-127.518z" />
</svg>