<svg xmlns="http://www.w3.org/2000/svg" xml:space="preserve" viewBox="0 0 512 512">
    <path
        d="M458.903 2.372a50.726 50.726 0 0 1 50.725 50.725v405.806a50.726 50.726 0 0 1-50.725 50.725H53.097a50.726 50.726 0 0 1-50.725-50.725V53.097A50.726 50.726 0 0 1 53.097 2.372ZM344.347 186.506a79.047 79.047 0 0 0-67.55 33.479l-3.593 5.622h-1.014v-33.099h-72.157v242.089h75.158V314.842c0-31.577 6.003-62.14 45.146-62.14 38.594 0 39.101 36.1 39.101 64.169v117.726h75.159V301.822l-.212-13.738c-2.113-58.335-19.276-101.578-90.038-101.578zm-191.531 6.002H77.573v242.089h75.243ZM115.194 72.204a43.624 43.624 0 1 0 0 87.248 43.624 43.624 0 0 0 0-87.248z" />
</svg>